<?xml version="1.0" standalone="no"?><!DOCTYPE svg PUBLIC "-//W3C//DTD SVG 1.1//EN" "http://www.w3.org/Graphics/SVG/1.1/DTD/svg11.dtd"><svg class="icon" width="64px" height="64.00px" viewBox="0 0 1024 1024" version="1.1" xmlns="http://www.w3.org/2000/svg"><path d="M959 825.17V629.52c0-22.29-3.05-44.23-17-62.65-18.22-24.11-44.7-37.8-75.1-37.85h-49.2V199.7c0-10.75 0.71-21.85-0.37-32.58-3.05-30.33-17.11-57.34-43-74.35C761 84 744.75 79.89 728.85 79.85H306.66c-20.63 0-40.75 1.67-58.52 14-25.47 17.65-39.76 45.44-41.61 76.17-0.22 3.64-0.13 7.31-0.13 11V529h-48.57c-25.23 0-50.15 9.16-67.64 27.82a92.28 92.28 0 0 0-25 62.37v134.34c0 33.42-0.31 66.86 0 100.28 0.2 22.06 8.09 42.19 22.07 59.07 15.32 18.5 37.73 28.37 61.2 30.86a153.52 153.52 0 0 0 16.2 0.39h704.11c0.58 0 1.16 0 1.73-0.06 23.32-0.69 46.09-10.05 62.5-26.81A91.82 91.82 0 0 0 959 854c0.05-9.64 0-19.24 0-28.83z m-71.85-230a11.48 11.48 0 0 1-1.41-1.1c0.05-0.07 0.65 0.38 1.37 1.05zM751.26 152.06a16.91 16.91 0 0 1-1.23-1.61c0.72 0.77 1.31 1.47 1.23 1.61zM282 143c0.06 0.08-0.61 0.59-1.41 1.18z m-2.46 2.09c2-1.22 4-2.4 6-3.47a56.92 56.92 0 0 1 5.59-1.51c4.35-0.24 8.74-0.11 13.08-0.11h374.26c17.13 0 34.27-0.15 51.4 0 1 0 2.06 0.05 3.09 0.11a55.63 55.63 0 0 1 5.66 1.53c2 1 3.84 2.12 5.72 3.29 1.18 1.06 2.35 2.12 3.46 3.26 0.16 0.17 0.93 0.93 1.71 1.74 0.32 0.45 0.64 0.91 1 1.38a65.93 65.93 0 0 1 4 7.13 74.65 74.65 0 0 1 2.86 10.56c1.13 12.93 0.2 26.35 0.2 39.21v293.25c0 9.18-0.11 18.37-0.13 27.56H266.52V216.8c0-14.06-0.1-28.13 0-42.19 0-2 0.1-3.9 0.25-5.84a75.9 75.9 0 0 1 2.82-10.36 65.24 65.24 0 0 1 3.69-6.57c0.14-0.23 0.39-0.59 0.68-1 0.8-0.93 1.9-2.22 2.34-2.68 1.04-1.07 2.13-2.1 3.25-3.1zM131.23 600.87a9.07 9.07 0 0 1-1.1 1.41c-0.07-0.09 0.44-0.69 1.1-1.41zM137 878a10.19 10.19 0 0 1 1.42 1.1c-0.12 0.11-0.71-0.4-1.42-1.1z m582.63 6h-563.6c-1.59 0-3.17-0.06-4.75-0.16a66.25 66.25 0 0 1-7.72-2.12 60.31 60.31 0 0 1-6-3.43c-0.37-0.24-0.74-0.5-1.1-0.75-1.1-1-2.28-2.23-2.39-2.35-1-1-1.9-2.12-2.87-3.15a59.71 59.71 0 0 1-3.66-6.35 65.47 65.47 0 0 1-2.13-7.79c-0.61-8.29-0.15-16.78-0.15-25V646c0-10-0.67-20.45 0.11-30.55a66.71 66.71 0 0 1 2.17-8 61.31 61.31 0 0 1 3.43-6c0.24-0.38 0.5-0.74 0.75-1.1 1-1.1 2.23-2.28 2.35-2.4 1-1 2.12-1.89 3.15-2.86a59.71 59.71 0 0 1 6.35-3.66 64 64 0 0 1 7.7-2.12c7.12-0.5 14.39-0.16 21.47-0.16h695.29c1.6 0 3.19 0.06 4.78 0.16a64 64 0 0 1 7.73 2.12 60.31 60.31 0 0 1 6 3.43c0.37 0.24 0.73 0.5 1.1 0.75 1.1 1 2.28 2.23 2.39 2.34 1 1 1.89 2.13 2.86 3.16a58 58 0 0 1 3.66 6.35 63.18 63.18 0 0 1 2.14 7.79c0.61 8.29 0.15 16.78 0.15 25v186.94c0 10 0.66 20.45-0.12 30.55a62.55 62.55 0 0 1-2.17 8 58.4 58.4 0 0 1-3.43 6c-0.24 0.37-0.49 0.74-0.75 1.1-1 1.1-2.23 2.28-2.34 2.39-1 1-2.12 1.9-3.16 2.87a60.58 60.58 0 0 1-6.34 3.66 65.52 65.52 0 0 1-7.76 2.13c-1.33 0.08-2.66 0.14-4 0.15H719.61z m173.25-11.72a11.17 11.17 0 0 1 1.1-1.42c0.02 0.14-0.45 0.7-1.12 1.43z"  /><path d="M457.8 299.93l81.4-0.33 129.58-0.54 29.51-0.13c15.72-0.06 30.79-13.78 30.06-30.06s-13.21-30.13-30.06-30.06l-81.4 0.34-129.58 0.54-29.51 0.12c-15.72 0.07-30.79 13.78-30.06 30.06S441 300 457.8 299.93zM698.29 367.29H457.8c-15.73 0-30.79 13.82-30.06 30.06s13.26 30.06 30.06 30.06h240.49c15.73 0 30.79-13.83 30.06-30.06s-13.21-30.06-30.06-30.06z"  /><path d="M325.8 239.31m30.06 0l0 0q30.06 0 30.06 30.06l0 0q0 30.06-30.06 30.06l0 0q-30.06 0-30.06-30.06l0 0q0-30.06 30.06-30.06Z"  /><path d="M325.8 368.43m30.06 0l0 0q30.06 0 30.06 30.06l0 0q0 30.06-30.06 30.06l0 0q-30.06 0-30.06-30.06l0 0q0-30.06 30.06-30.06Z"  /></svg>