<?xml version="1.0" standalone="no"?><!DOCTYPE svg PUBLIC "-//W3C//DTD SVG 1.1//EN" "http://www.w3.org/Graphics/SVG/1.1/DTD/svg11.dtd"><svg class="icon" width="64px" height="64.00px" viewBox="0 0 1024 1024" version="1.1" xmlns="http://www.w3.org/2000/svg"><path d="M957.887256 842.926991c-16.256242-122.79879-86.213547-226.983641-181.684946-278.048667 41.8522-33.18275 67.512626-82.9799 67.512626-136.539746 0-84.317361-62.916958-157.642366-149.566434-174.319188-16.356526-3.120061-31.837102 7.463995-34.957163 23.644513-3.148713 16.210193 7.463995 31.837102 23.644513 34.957163 58.631352 11.31265 101.169167 59.972906 101.169167 115.717512 0 48.710398-32.993438 92.927459-82.163301 110.266359-12.852726 0.63752-24.276916 9.457396-27.547403 22.564925-3.965312 16.006556 5.743818 32.216749 21.750373 36.210713 95.048773 23.708981 170.956603 109.930715 196.504466 219.597417L127.165238 816.977993c12.916171-118.895901 101.81078-219.393779 220.880643-244.816798 14.004969-2.988054 23.603581-15.349593 23.611767-29.112038 0.185218-12.319583-7.305383-23.957645-19.530822-28.470425-62.217017-22.915919-103.996562-82.684164-103.996562-148.721183 0-87.582731 71.255881-158.838611 158.867264-158.838611 87.582731 0 158.838611 71.255881 158.838611 158.838611 0 65.669652-41.320081 125.133975-102.935394 148.329257-2.216481 0.734734-4.336772 1.730411-6.318916 2.956332-0.088004 0.054235-0.177032 0.107447-0.265036 0.162706-0.23843 0.151449-0.473791 0.305969-0.708128 0.463558-0.228197 0.151449-0.454348 0.304945-0.676405 0.462534-0.089028 0.063445-0.176009 0.127913-0.264013 0.192382-3.535523 2.560312-6.40692 5.827729-8.487302 9.528004-0.004093 0.00614-0.007163 0.013303-0.011256 0.019443-0.23536 0.419556-0.460488 0.844228-0.675382 1.274016-0.008186 0.017396-0.017396 0.034792-0.025583 0.052189-0.214894 0.431835-0.418532 0.867764-0.611937 1.308809-0.002047 0.005117-0.004093 0.010233-0.00614 0.01535-2.351558 5.370311-3.133364 11.432377-2.00568 17.452487 0.013303 0.070608 0.023536 0.141216 0.037862 0.210801 0.066515 0.341784 0.143263 0.682545 0.223081 1.02433 0.034792 0.153496 0.067538 0.306992 0.105401 0.459464 0.070608 0.282433 0.149403 0.564865 0.228197 0.847298 0.056282 0.201591 0.110517 0.404206 0.171915 0.604774 0.077771 0.258896 0.163729 0.517793 0.249687 0.776689 0.069585 0.209778 0.138146 0.419556 0.212848 0.627287 0.034792 0.097214 0.063445 0.195451 0.099261 0.292666 0.061398 0.165776 0.130983 0.325411 0.195451 0.490164 0.078795 0.202615 0.157589 0.404206 0.240477 0.603751 0.107447 0.260943 0.220011 0.518816 0.334621 0.774643 0.081864 0.183172 0.164752 0.366344 0.25071 0.548492 0.12996 0.276293 0.264013 0.549515 0.402159 0.820692 0.075725 0.148379 0.152473 0.295735 0.230244 0.443092 0.157589 0.297782 0.319272 0.591471 0.48607 0.88209 0.065492 0.113587 0.130983 0.225127 0.197498 0.337691 0.186242 0.314155 0.375553 0.62524 0.572028 0.930185 0.055259 0.086981 0.112564 0.172939 0.168846 0.258896 0.210801 0.320295 0.424672 0.636496 0.64673 0.947582 0.054235 0.075725 0.109494 0.150426 0.164752 0.226151 0.226151 0.310062 0.455371 0.617054 0.691755 0.916882 0.066515 0.084934 0.135076 0.167822 0.203638 0.251733 0.227174 0.282433 0.457418 0.560772 0.693802 0.832971 0.096191 0.11154 0.196475 0.220011 0.294712 0.330528 0.210801 0.23536 0.421602 0.468674 0.639566 0.696872 0.148379 0.155543 0.300852 0.306992 0.452301 0.460488 0.171915 0.172939 0.343831 0.345877 0.51984 0.514723 0.217964 0.208754 0.441045 0.410346 0.665149 0.61296 0.11461 0.103354 0.229221 0.208754 0.345877 0.310062 0.294712 0.257873 0.597611 0.508583 0.903579 0.7552 0.050142 0.039909 0.098237 0.081864 0.148379 0.12075 2.554172 2.033309 5.473665 3.665483 8.682753 4.78805 0.013303 0.005117 0.026606 0.00921 0.040932 0.014326 0.416486 0.145309 0.838088 0.281409 1.264806 0.409322 0.061398 0.01842 0.121773 0.035816 0.183172 0.053212 0.388856 0.113587 0.779759 0.221034 1.175779 0.319272 0.093121 0.023536 0.186242 0.045025 0.279363 0.066515 0.24457 0.058328 0.487094 0.122797 0.734734 0.176009 98.720396 21.020756 178.955788 93.909833 209.422683 190.150758 4.02364 12.71151 15.773242 20.845771 28.455075 20.845771 2.973728 0 6.005784-0.436952 9.009188-1.399883 15.714913-4.956895 24.432459-21.750373 19.446911-37.464263-29.79049-94.170776-98.91687-169.872922-187.413414-208.990848 49.929156-40.782845 80.646761-102.631472 80.646761-169.095209 0-120.499421-98.049107-218.548528-218.548528-218.548528-120.528074 0-218.577181 98.049107-218.577181 218.548528 0 66.645886 30.864962 128.625496 81.020268 169.398108C148.303674 588.912717 65.8518 710.756763 65.8518 846.833975c0 16.501836 13.353123 29.854958 29.854958 29.854958l810.780851 0c3.854794 0 7.534604-0.73678 10.915607-2.064009 3.39226 1.334391 7.062859 2.064009 10.863419 2.064009 1.283226 0 2.623757-0.088004 3.935636-0.261966C948.557774 874.268814 960.045409 859.254865 957.887256 842.926991z" /></svg>