<?xml version="1.0" standalone="no"?><!DOCTYPE svg PUBLIC "-//W3C//DTD SVG 1.1//EN" "http://www.w3.org/Graphics/SVG/1.1/DTD/svg11.dtd"><svg class="icon" width="64px" height="63.88px" viewBox="0 0 1026 1024" version="1.1" xmlns="http://www.w3.org/2000/svg"><path d="M115.479782 1024A115.536809 115.536809 0 0 1 0 908.520218V335.284284a115.479782 115.479782 0 0 1 115.536809-115.479782H280.5731L489.805356 10.686299a34.216232 34.216232 0 0 1 7.014328-5.702705 35.470827 35.470827 0 0 1 32.790555-1.710811l1.596758 0.741351 2.566217 1.482704 0.627297 0.399189a38.436234 38.436234 0 0 1 3.991894 3.079461l1.425676 1.311622 209.17523 209.118203h161.899803A115.479782 115.479782 0 0 1 1026.48695 335.284284v573.12188a115.479782 115.479782 0 0 1-115.479782 115.479782z m-41.059478-681.758416v555.899711a50.297861 50.297861 0 0 0 50.354887 50.29786H902.738245a50.297861 50.297861 0 0 0 50.297861-50.29786V342.241584a50.297861 50.297861 0 0 0-50.297861-50.29786H821.18956l50.012725 50.012725a35.470827 35.470827 0 0 1-50.126779 50.126779l-100.139505-100.139504H308.687437L208.547932 392.083228a35.470827 35.470827 0 0 1-50.126779-50.126779l50.012725-50.012725H124.832219a50.297861 50.297861 0 0 0-50.411915 50.29786z m306.349327-122.380055h268.027148L514.783205 85.904982zM263.636065 797.716655a29.254878 29.254878 0 1 1 0-57.027053h499.499955a29.254878 29.254878 0 1 1 0 57.027053z m0-228.108211a29.254878 29.254878 0 1 1 0-57.027053h499.499955a29.254878 29.254878 0 1 1 0 57.027053z" /></svg>