<?xml version="1.0" standalone="no"?><!DOCTYPE svg PUBLIC "-//W3C//DTD SVG 1.1//EN" "http://www.w3.org/Graphics/SVG/1.1/DTD/svg11.dtd"><svg class="icon" width="64px" height="64.00px" viewBox="0 0 1024 1024" version="1.1" xmlns="http://www.w3.org/2000/svg"><path d="M807.822222 932.977778l-591.644444 0c-37.6832 0-68.266667-30.583467-68.266667-68.266667L147.911111 159.288889c0-37.6832 30.583467-68.266667 68.266667-68.266667l591.644444 0c37.6832 0 68.266667 30.583467 68.266667 68.266667l0 705.422222C876.088889 902.394311 845.505422 932.977778 807.822222 932.977778zM830.577778 182.044444c0-25.122133-20.388978-45.511111-45.511111-45.511111l-546.133333 0c-25.122133 0-45.511111 20.388978-45.511111 45.511111l0 659.911111c0 25.122133 20.388978 45.511111 45.511111 45.511111l546.133333 0c25.122133 0 45.511111-20.388978 45.511111-45.511111L830.577778 182.044444zM715.958044 335.485156C707.333689 440.661333 619.406222 523.377778 512 523.377778s-195.333689-82.716444-203.958044-187.892622C294.047289 327.725511 284.444444 312.979911 284.444444 295.822222c0-25.122133 20.388978-45.511111 45.511111-45.511111s45.511111 20.388978 45.511111 45.511111c0 16.1792-8.487822 30.264889-21.185422 38.365867C362.222933 414.72 429.374578 477.866667 512 477.866667s149.777067-63.146667 157.741511-143.678578C657.021156 326.087111 648.533333 312.001422 648.533333 295.822222c0-25.122133 20.388978-45.511111 45.511111-45.511111s45.511111 20.388978 45.511111 45.511111C739.555556 312.979911 729.952711 327.725511 715.958044 335.485156z" /></svg>