<?xml version="1.0" standalone="no"?><!DOCTYPE svg PUBLIC "-//W3C//DTD SVG 1.1//EN" "http://www.w3.org/Graphics/SVG/1.1/DTD/svg11.dtd"><svg class="icon" width="128px" height="128.00px" viewBox="0 0 1024 1024" version="1.1" xmlns="http://www.w3.org/2000/svg"><path d="M537.6 928.814545h-93.090909c-25.6 0-46.545455-20.945455-46.545455-46.545454v-60.509091c-21.410909-6.283636-41.890909-14.894545-60.974545-25.134545l-43.287273 42.356363c-18.152727 18.152727-47.709091 18.152727-65.861818 0l-65.861818-65.861818c-18.152727-18.152727-18.152727-47.709091 0-65.861818l42.821818-42.821818c-10.705455-19.781818-19.083636-40.029091-25.367273-60.974546l-60.509091-0.698182c-25.6 0-46.545455-20.945455-46.545454-46.545454v-93.090909c0-25.6 20.945455-46.545455 46.545454-46.545455h60.509091c6.283636-21.410909 14.894545-41.890909 25.134546-60.974545l-42.356364-43.287273c-8.843636-8.843636-13.730909-20.48-13.730909-33.047273 0-12.334545 4.887273-24.203636 13.730909-32.814545L228.072727 180.596364c18.152727-18.152727 47.709091-18.152727 65.861818 0l42.821819 42.821818c19.781818-10.705455 40.029091-19.083636 60.974545-25.367273l0.698182-60.509091c0-25.6 20.945455-46.545455 46.545454-46.545454h93.09091c25.6 0 46.545455 20.945455 46.545454 46.545454v60.509091c21.643636 6.516364 41.890909 14.894545 60.974546 25.134546l43.287272-42.356364c18.152727-18.152727 47.709091-18.152727 65.861818 0l65.861819 65.861818a46.289455 46.289455 0 0 1 0 65.861818l-42.821819 42.821818c10.705455 19.781818 19.083636 40.261818 25.367273 60.974546l60.509091 0.698182c25.6 0 46.545455 20.945455 46.545455 46.545454v93.090909c0 25.6-20.945455 46.545455-46.545455 46.545455h-60.509091c-6.516364 21.410909-14.894545 41.890909-25.134545 60.974545l42.356363 43.287273c18.152727 18.152727 18.152727 47.709091 0 65.861818l-65.861818 65.861818c-18.152727 18.152727-47.709091 18.152727-65.861818 0l-42.821818-42.821818c-19.781818 10.705455-40.261818 19.083636-60.974546 25.367273l-0.698181 60.509091a46.545455 46.545455 0 0 1-46.545455 46.545454z m-201.541818-178.967272c7.68 0 15.592727 1.861818 22.807273 5.818182 16.523636 8.843636 33.978182 16.058182 51.665454 21.410909 20.247273 6.050909 33.745455 23.970909 33.745455 44.683636v60.509091h93.090909v-60.509091c0-20.712727 13.498182-38.632727 33.745454-44.683636 17.92-5.352727 35.141818-12.567273 51.665455-21.410909 18.385455-10.007273 40.727273-6.981818 55.389091 7.68L721.454545 806.167273l65.861819-65.861818-42.821819-42.821819c-14.661818-14.661818-17.687273-37.003636-7.68-55.621818 8.843636-16.523636 16.058182-33.978182 21.41091-51.665454 6.050909-20.247273 23.970909-33.745455 44.683636-33.745455h60.509091v-93.090909h-60.509091c-20.712727 0-38.632727-13.498182-44.683636-33.745455-5.352727-17.687273-12.567273-35.141818-21.41091-51.665454-10.007273-18.618182-6.981818-40.96 7.68-55.621818l42.821819-42.821818L721.454545 213.876364l-42.821818 42.821818c-14.661818 14.661818-37.003636 17.687273-55.621818 7.68-16.290909-8.843636-33.745455-16.058182-51.665454-21.410909a46.498909 46.498909 0 0 1-33.745455-44.683637v-60.509091h-93.090909v60.509091c0 20.712727-13.498182 38.632727-33.745455 44.683637-17.92 5.352727-35.374545 12.567273-51.665454 21.410909-18.618182 10.007273-40.96 6.981818-55.621818-7.68L260.654545 213.876364l-65.861818 65.861818 42.821818 42.821818c14.661818 14.661818 17.687273 37.003636 7.68 55.621818-8.843636 16.523636-16.058182 33.978182-21.410909 51.665455-6.050909 20.247273-23.970909 33.745455-44.683636 33.745454H118.690909v93.090909h60.509091c20.712727 0 38.632727 13.498182 44.683636 33.745455 5.352727 17.92 12.567273 35.141818 21.410909 51.665454 10.007273 18.618182 6.981818 40.96-7.68 55.389091l-42.821818 42.821819 65.861818 65.861818 42.821819-42.821818c8.843636-8.843636 20.712727-13.498182 32.581818-13.498182z" fill="#ffffff" /><path d="M491.054545 707.723636c-109.149091 0-197.818182-88.669091-197.818181-197.818181 0-16.756364 2.094545-33.28 6.283636-49.338182a23.272727 23.272727 0 0 1 28.392727-16.756364c12.567273 3.258182 20.014545 15.825455 16.756364 28.392727-3.258182 12.334545-4.887273 25.134545-4.887273 37.934546 0 83.316364 67.956364 151.272727 151.272727 151.272727s151.272727-67.956364 151.272728-151.272727-67.956364-151.272727-151.272728-151.272727c-30.254545 0-59.578182 8.843636-84.48 25.832727a23.249455 23.249455 0 0 1-32.34909-6.283637 23.249455 23.249455 0 0 1 6.283636-32.34909 196.980364 196.980364 0 0 1 110.545454-33.745455c109.149091 0 197.818182 88.669091 197.818182 197.818182s-88.669091 197.585455-197.818182 197.585454z" fill="#ffffff" /></svg>