<?xml version="1.0" standalone="no"?><!DOCTYPE svg PUBLIC "-//W3C//DTD SVG 1.1//EN" "http://www.w3.org/Graphics/SVG/1.1/DTD/svg11.dtd"><svg class="icon" width="128px" height="128.00px" viewBox="0 0 1024 1024" version="1.1" xmlns="http://www.w3.org/2000/svg"><path d="M477.9 420.8h245.9v41H477.9zM477.9 270.3h245.9v41H477.9z" fill="#ffffff" /><path d="M886.3 594.1V103.4H295.8v122.2H132.9v368.5H63.3v365.4H960V594.1h-73.7zM341.7 143.9l504.3-0.3v450.5H622.2c-5 44.8-42.6 79.7-88.7 79.7s-83.6-34.9-88.7-79.7h-110l6.9-450.2zM173.4 266h122.4v328.1H173.4V266zM921 920.6H102.3V633.1h319.4c16.8 45.9 60.8 78.7 112.5 78.7s95.7-32.8 112.5-78.7H921v287.5z" fill="#ffffff" /></svg>