<?xml version="1.0" standalone="no"?><!DOCTYPE svg PUBLIC "-//W3C//DTD SVG 1.1//EN" "http://www.w3.org/Graphics/SVG/1.1/DTD/svg11.dtd"><svg class="icon" width="128px" height="128.00px" viewBox="0 0 1024 1024" version="1.1" xmlns="http://www.w3.org/2000/svg"><path d="M374.2 883.6H158.9v-767h617.8l-0.9 279.5-50-0.1 0.7-229.4H208.9v667h165.3z" fill="#ffffff" /><path d="M650.6 700.6c-68.1 0-123.5-55.4-123.5-123.6s55.4-123.6 123.5-123.6S774.2 508.8 774.2 577s-55.5 123.6-123.6 123.6z m0-197.2c-40.5 0-73.5 33-73.5 73.6s33 73.6 73.5 73.6 73.5-33 73.5-73.6-32.9-73.6-73.5-73.6z" fill="#ffffff" /><path d="M865.1 883.3h-50c0-100.7-73.8-182.6-164.5-182.6s-164.5 81.9-164.5 182.6h-50c0-61.7 22-119.8 62-163.6 40.6-44.5 94.7-68.9 152.4-68.9s111.9 24.5 152.4 68.9c40.2 43.7 62.2 101.9 62.2 163.6zM268.8 266.5h280.7v50H268.8zM268.8 381.5h280.7v50H268.8z" fill="#ffffff" /><path d="M268.8 496.5h171v50h-171z" fill="#ffffff" /></svg>