<?xml version="1.0" standalone="no"?><!DOCTYPE svg PUBLIC "-//W3C//DTD SVG 1.1//EN" "http://www.w3.org/Graphics/SVG/1.1/DTD/svg11.dtd"><svg class="icon" width="96px" height="95.91px" viewBox="0 0 1025 1024" version="1.1" xmlns="http://www.w3.org/2000/svg"><path d="M932.223 10.24l-825.95 0c-50.475 0-91.772 41.297-91.772 91.772l0 825.95c0 50.48 41.297 91.775 91.772 91.775l825.95 0c50.48 0 91.775-41.295 91.775-91.775l0-825.95C1023.997 51.537 982.703 10.24 932.223 10.24zM955.168 905.013c0 25.25-20.645 45.895-45.895 45.895L129.217 950.908c-25.24 0-45.887-20.645-45.887-45.895L83.33 124.957c0-25.24 20.647-45.887 45.887-45.887l780.056 0c25.25 0 45.895 20.647 45.895 45.887L955.168 905.013zM771.618 239.67c-39 0-68.83 29.827-68.83 68.83 0 20.65 9.18 39.002 22.945 50.475l0 64.24c0 114.72-91.775 206.484-206.484 206.484-114.717 0-206.489-91.765-206.489-206.484l0-64.24c13.765-11.472 22.945-29.825 22.945-50.475 0-39.002-29.827-68.83-68.83-68.83-39.005 0-68.83 29.827-68.83 68.83 0 29.827 18.355 55.062 45.885 64.242l0 50.472c0 151.42 123.892 275.314 275.319 275.314 151.42 0 275.314-123.895 275.314-275.314l0-50.472c27.535-9.18 45.885-34.415 45.885-64.242C840.448 269.497 810.628 239.67 771.618 239.67z" fill="#ffffff" /></svg>